<mxfile host="app.diagrams.net" agent="Mozilla/5.0 (Windows NT 10.0; Win64; x64) AppleWebKit/537.36 (KHTML, like Gecko) Chrome/130.0.0.0 Safari/537.36" version="24.8.3">
  <diagram name="Page-1" id="Fh_HRzKZiNbB_jSwewdT">
    <mxGraphModel dx="1187" dy="828" grid="0" gridSize="10" guides="1" tooltips="1" connect="1" arrows="1" fold="1" page="0" pageScale="1" pageWidth="827" pageHeight="1169" math="0" shadow="0">
      <root>
        <mxCell id="0" />
        <mxCell id="1" parent="0" />
        <mxCell id="9xC3U_p5T2qcpVNTDkqM-1" value="" style="rounded=0;whiteSpace=wrap;html=1;" vertex="1" parent="1">
          <mxGeometry x="32" y="542" width="1086" height="1111" as="geometry" />
        </mxCell>
        <mxCell id="9xC3U_p5T2qcpVNTDkqM-2" value="" style="rounded=0;whiteSpace=wrap;html=1;" vertex="1" parent="1">
          <mxGeometry x="2" y="548" width="840" height="457" as="geometry" />
        </mxCell>
        <mxCell id="9xC3U_p5T2qcpVNTDkqM-3" value="START GAME/ RESTART" style="rounded=0;whiteSpace=wrap;html=1;" vertex="1" parent="1">
          <mxGeometry x="55" y="1031" width="208" height="51" as="geometry" />
        </mxCell>
        <mxCell id="9xC3U_p5T2qcpVNTDkqM-4" value="2 MINUTE" style="rounded=0;whiteSpace=wrap;html=1;" vertex="1" parent="1">
          <mxGeometry x="550" y="1031" width="208" height="51" as="geometry" />
        </mxCell>
        <mxCell id="9xC3U_p5T2qcpVNTDkqM-5" value="1 MINUTE" style="rounded=0;whiteSpace=wrap;html=1;" vertex="1" parent="1">
          <mxGeometry x="303" y="1031" width="208" height="51" as="geometry" />
        </mxCell>
        <mxCell id="9xC3U_p5T2qcpVNTDkqM-6" value="SCORE" style="rounded=0;whiteSpace=wrap;html=1;" vertex="1" parent="1">
          <mxGeometry x="303" y="1111" width="208" height="51" as="geometry" />
        </mxCell>
        <mxCell id="9xC3U_p5T2qcpVNTDkqM-7" value="TIME LEFT" style="rounded=0;whiteSpace=wrap;html=1;" vertex="1" parent="1">
          <mxGeometry x="303" y="1184" width="208" height="51" as="geometry" />
        </mxCell>
        <mxCell id="9xC3U_p5T2qcpVNTDkqM-8" value="GAME DOCUMENTATION&amp;nbsp;" style="rounded=0;whiteSpace=wrap;html=1;" vertex="1" parent="1">
          <mxGeometry x="303" y="1254" width="208" height="51" as="geometry" />
        </mxCell>
        <mxCell id="9xC3U_p5T2qcpVNTDkqM-9" value="&lt;font style=&quot;font-size: 24px;&quot;&gt;CANVAS&lt;/font&gt;" style="rounded=0;whiteSpace=wrap;html=1;" vertex="1" parent="1">
          <mxGeometry x="9" y="953" width="94" height="46" as="geometry" />
        </mxCell>
        <mxCell id="9xC3U_p5T2qcpVNTDkqM-10" value="CHARACTER" style="rounded=0;whiteSpace=wrap;html=1;" vertex="1" parent="1">
          <mxGeometry x="331" y="781" width="120" height="60" as="geometry" />
        </mxCell>
        <mxCell id="9xC3U_p5T2qcpVNTDkqM-11" value="GAME TITLE" style="rounded=0;whiteSpace=wrap;html=1;" vertex="1" parent="1">
          <mxGeometry x="28" y="473" width="788" height="55" as="geometry" />
        </mxCell>
        <mxCell id="9xC3U_p5T2qcpVNTDkqM-12" value="TOY" style="ellipse;whiteSpace=wrap;html=1;aspect=fixed;" vertex="1" parent="1">
          <mxGeometry x="150" y="575" width="47" height="47" as="geometry" />
        </mxCell>
        <mxCell id="9xC3U_p5T2qcpVNTDkqM-13" value="TOY" style="ellipse;whiteSpace=wrap;html=1;aspect=fixed;" vertex="1" parent="1">
          <mxGeometry x="515" y="560" width="47" height="47" as="geometry" />
        </mxCell>
        <mxCell id="9xC3U_p5T2qcpVNTDkqM-14" value="TOY" style="ellipse;whiteSpace=wrap;html=1;aspect=fixed;" vertex="1" parent="1">
          <mxGeometry x="448" y="650" width="47" height="47" as="geometry" />
        </mxCell>
        <mxCell id="9xC3U_p5T2qcpVNTDkqM-15" value="TOY" style="ellipse;whiteSpace=wrap;html=1;aspect=fixed;" vertex="1" parent="1">
          <mxGeometry x="275" y="657" width="47" height="47" as="geometry" />
        </mxCell>
        <mxCell id="9xC3U_p5T2qcpVNTDkqM-16" value="TOY" style="ellipse;whiteSpace=wrap;html=1;aspect=fixed;" vertex="1" parent="1">
          <mxGeometry x="383.5" y="575" width="47" height="47" as="geometry" />
        </mxCell>
        <mxCell id="9xC3U_p5T2qcpVNTDkqM-29" value="" style="rounded=0;whiteSpace=wrap;html=1;" vertex="1" parent="1">
          <mxGeometry x="28" y="597" width="782" height="375" as="geometry" />
        </mxCell>
        <mxCell id="9xC3U_p5T2qcpVNTDkqM-30" value="GAME OVER !" style="rounded=0;whiteSpace=wrap;html=1;" vertex="1" parent="1">
          <mxGeometry x="354" y="674" width="127" height="30" as="geometry" />
        </mxCell>
        <mxCell id="9xC3U_p5T2qcpVNTDkqM-31" value="Your score :&lt;span style=&quot;color: rgba(0, 0, 0, 0); font-family: monospace; font-size: 0px; text-align: start; text-wrap-mode: nowrap;&quot;&gt;%3CmxGraphModel%3E%3Croot%3E%3CmxCell%20id%3D%220%22%2F%3E%3CmxCell%20id%3D%221%22%20parent%3D%220%22%2F%3E%3CmxCell%20id%3D%222%22%20value%3D%22GAME%20OVER%20!%22%20style%3D%22rounded%3D0%3BwhiteSpace%3Dwrap%3Bhtml%3D1%3B%22%20vertex%3D%221%22%20parent%3D%221%22%3E%3CmxGeometry%20x%3D%22359%22%20y%3D%22666%22%20width%3D%22120%22%20height%3D%2260%22%20as%3D%22geometry%22%2F%3E%3C%2FmxCell%3E%3C%2Froot%3E%3C%2FmxGraphModel%3E&lt;/span&gt;" style="rounded=0;whiteSpace=wrap;html=1;" vertex="1" parent="1">
          <mxGeometry x="344" y="716" width="137" height="32" as="geometry" />
        </mxCell>
        <mxCell id="9xC3U_p5T2qcpVNTDkqM-32" value="FEEDBACK" style="rounded=0;whiteSpace=wrap;html=1;" vertex="1" parent="1">
          <mxGeometry x="360" y="759" width="115" height="35" as="geometry" />
        </mxCell>
        <mxCell id="9xC3U_p5T2qcpVNTDkqM-34" value="Restart Button" style="rounded=0;whiteSpace=wrap;html=1;" vertex="1" parent="1">
          <mxGeometry x="360" y="826" width="115" height="35" as="geometry" />
        </mxCell>
      </root>
    </mxGraphModel>
  </diagram>
</mxfile>
